<svg xmlns="http://www.w3.org/2000/svg" viewBox="0 0 24 24">
    <path fill="#6B4FBB" d="M21.3 12c0 .9-.3 1.7-.8 2.4-.5.6-1.2 1.1-2 1.3v-2.1c.4-.2.7-.6.7-1.1 0-.7-.5-1.2-1.2-1.2s-1.2.5-1.2 1.2c0 .5.3.9.7 1.1v2.1c-.8-.2-1.5-.7-2-1.3-.5-.7-.8-1.5-.8-2.4s.3-1.7.8-2.4c.5-.6 1.2-1.1 2-1.3V7c-.4.2-.7.6-.7 1.1 0 .7.5 1.2 1.2 1.2s1.2-.5 1.2-1.2c0-.5-.3-.9-.7-1.1V6.3c.8.2 1.5.7 2 1.3.5.7.8 1.5.8 2.4zM12 21.3c-.9 0-1.7-.3-2.4-.8-.6-.5-1.1-1.2-1.3-2h2.1c.2.4.6.7 1.1.7.7 0 1.2-.5 1.2-1.2s-.5-1.2-1.2-1.2c-.5 0-.9.3-1.1.7H8.3c.2-.8.7-1.5 1.3-2 .7-.5 1.5-.8 2.4-.8s1.7.3 2.4.8c.6.5 1.1 1.2 1.3 2h-2.1c-.2-.4-.6-.7-1.1-.7-.7 0-1.2.5-1.2 1.2s.5 1.2 1.2 1.2c.5 0 .9-.3 1.1-.7h2.1c-.2.8-.7 1.5-1.3 2-.7.5-1.5.8-2.4.8zM2.7 12c0-.9.3-1.7.8-2.4.5-.6 1.2-1.1 2-1.3v2.1c-.4.2-.7.6-.7 1.1 0 .7.5 1.2 1.2 1.2s1.2-.5 1.2-1.2c0-.5-.3-.9-.7-1.1V8.3c.8.2 1.5.7 2 1.3.5.7.8 1.5.8 2.4s-.3 1.7-.8 2.4c-.5.6-1.2 1.1-2 1.3v-2.1c.4-.2.7-.6.7-1.1 0-.7-.5-1.2-1.2-1.2s-1.2.5-1.2 1.2c0 .5.3.9.7 1.1v2.1c-.8-.2-1.5-.7-2-1.3-.5-.7-.8-1.5-.8-2.4z"/>
    <path fill="#6B4FBB" d="M12 2.7c.9 0 1.7.3 2.4.8.6.5 1.1 1.2 1.3 2h-2.1c-.2-.4-.6-.7-1.1-.7-.7 0-1.2.5-1.2 1.2s.5 1.2 1.2 1.2c.5 0 .9-.3 1.1-.7h2.1c-.2.8-.7 1.5-1.3 2-.7.5-1.5.8-2.4.8s-1.7-.3-2.4-.8c-.6-.5-1.1-1.2-1.3-2h2.1c.2.4.6.7 1.1.7.7 0 1.2-.5 1.2-1.2s-.5-1.2-1.2-1.2c-.5 0-.9.3-1.1.7H8.3c.2-.8.7-1.5 1.3-2 .7-.5 1.5-.8 2.4-.8z"/>
</svg>
