<svg xmlns="http://www.w3.org/2000/svg" viewBox="0 0 128 128">
    <path fill="#019BC6" d="M124.8 52.1c-4.3-2.5-10-2.8-14.8-1.4-.6-5.2-4-9.7-8-12.9l-1.6-1.3-1.4 1.6c-2.7 3.1-3.5 8.3-3.1 12.3.3 2.9 1.2 5.9 3 8.3-1.4.8-2.9 1.9-4.3 2.4-2.8 1-5.9 2-8.9 2h-6.7v-14.1h-13v-25h-15v12h-25v13h-13v14h-11.2l-.2 1.5c-.5 6.4.3 12.6 3 18.5l1.1 2.2.1.2c7.9 13.4 21.7 19 36.8 19 29.2 0 53.3-13.1 64.3-40.6 7.4.4 15-1.8 18.6-8.9l.9-1.8-1.6-1zm-96.8-13.1h10v11h-10v-11zm13.1 0h10v11h-10v-11zm13 0h10v11h-10v-11zm-13.1-13h10v11h-10v-11zm0 26h10v11h-10v-11zm13.1 0h10v11h-10v-11zm13 0h10v11h-10v-11zm-13.1-13h10v11h-10v-11zm13.1 0h10v11h-10v-11z"/>
</svg>
