<svg xmlns="http://www.w3.org/2000/svg" viewBox="0 0 24 24">
    <path fill="#FF6B6B" d="M8 2C6.34 2 5 3.34 5 5v14c0 1.66 1.34 3 3 3h8c1.66 0 3-1.34 3-3V5c0-1.66-1.34-3-3-3H8zm0 2h8c.55 0 1 .45 1 1v14c0 .55-.45 1-1 1H8c-.55 0-1-.45-1-1V5c0-.55.45-1 1-1zm2 2v2h4V6h-4zm0 4v2h4v-2h-4zm0 4v2h4v-2h-4zm-1 5c.55 0 1 .45 1 1s-.45 1-1 1-1-.45-1-1 .45-1 1-1zm4 0c.55 0 1 .45 1 1s-.45 1-1 1-1-.45-1-1 .45-1 1-1z"/>
    <path fill="#FF6B6B" d="M15 2.5V4h1v16h-1v1.5h2.5c1.38 0 2.5-1.12 2.5-2.5V5c0-1.38-1.12-2.5-2.5-2.5H15z"/>
    <path fill="#FF6B6B" d="M4 5v14c0 1.38 1.12 2.5 2.5 2.5H9v-1.5H8V4h1V2.5H6.5C5.12 2.5 4 3.62 4 5z"/>
</svg>
