<svg xmlns="http://www.w3.org/2000/svg" viewBox="0 0 128 128">
    <path fill="#000" d="M113.823 104.595c-1.795-1.478-3.629-2.921-5.308-4.525-1.87-1.785-3.045-3.944-2.789-6.678.147-1.573-.216-2.926-2.113-3.452.446-1.154.864-1.928 1.033-2.753.188-.92.178-1.887.204-2.834.264-9.96-3.334-18.691-8.663-26.835-2.454-3.748-5.017-7.429-7.633-11.066-4.092-5.688-5.559-12.078-5.633-18.981-.036-3.166-.41-6.38-1.081-9.475-1.313-6.04-4.549-10.763-10.418-13.296-4.497-1.942-9.152-2.327-13.901-1.084-6.901 1.805-11.074 6.934-10.996 14.088.074 6.885.417 13.779.922 20.648.288 3.893-.312 7.252-2.895 10.34-2.484 2.969-4.706 6.172-6.858 9.397-1.229 1.844-2.317 3.853-3.077 5.931-2.07 5.663-3.973 11.373-7.276 16.5-1.224 1.9-1.363 4.026-.494 6.199.225.563.363 1.429.089 1.882-2.354 3.907-5.011 7.345-10.066 8.095-3.976.591-4.172 1.314-4.051 5.413.1 3.337.061 6.705-.28 10.021-.363 3.555.008 4.521 3.442 5.373 7.924 1.968 15.913 3.647 23.492 6.854 3.227 1.365 6.465.891 9.064-1.763 2.713-2.771 6.141-3.855 9.844-3.859 6.285-.005 12.572.298 18.86.369 1.702.02 2.679.653 3.364 2.199.84 1.893 2.26 3.284 4.445 3.526 4.193.462 8.013-.16 11.19-3.359 3.918-3.948 8.436-7.066 13.615-9.227 1.482-.619 2.878-1.592 4.103-2.648 2.231-1.922 2.113-3.146-.135-5zm-51.397-80.475c.758-2.601 2.537-4.289 5.243-4.801 2.276-.43 4.203.688 5.639 3.246 1.546 2.758 2.011 5.67.734 8.569-.516 1.169-1.113 2.31-1.787 3.397-.602.979-1.205 1.98-2.138 2.752-1.893 1.566-3.982 1.309-5.502-.423-1.354-1.541-2.056-3.452-2.244-5.471-.159-1.701-.017-3.472.169-5.195.072-.677.419-1.332.64-2.002.079-.079.143-.175.246-.072zm23.544 41.49c-.339 1.157-.584 2.337-.908 3.497-.163.587-.345 1.171-.569 1.738-1.508 3.815-3.725 7.181-6.741 9.959-.424.392-1.052.57-1.59.851-.139-.5-.375-.99-.401-1.498-.139-2.642.156-5.236.814-7.798.535-2.076 1.171-4.129 1.837-6.166.303-.93.856-1.805.973-2.75.254-2.042-1.123-3.129-3.119-2.535-3.494 1.041-6.547 2.875-8.956 5.556-1.151 1.281-2.378 2.498-3.551 3.764-1.298 1.402-2.477 2.917-3.825 4.277-2.87 2.899-6.236 4.907-10.188 6.054-.496.144-1.045.159-1.559.295-1.538.407-2.417-.326-2.234-1.865.275-2.332.828-4.547 2.016-6.557 1.372-2.322 2.774-4.629 4.266-6.87 1.608-2.416 3.249-4.811 5.067-7.083 1.256-1.573 2.645-3.054 4.159-4.41 2.886-2.581 4.926-5.878 6.993-9.147 1.403-2.212 3.132-4.266 4.955-6.187 1.894-1.991 4.107-3.53 6.712-4.513 2.01-.758 3.734-.422 5.049 1.305 2.316 3.04 4.467 6.227 4.94 10.143.346 2.868.071 5.774.012 8.663-.030 1.493-.216 2.982-.314 4.473-.071 1.071-.126 2.144-.159 3.217-.025.841.111 1.688.123 2.533.01.721-.119 1.186-.872 1.358-.255.059-.485.265-.797.44zm-33.069-14.313c-.518-1.437-.953-2.637-1.388-3.838-1.123-3.099-2.82-5.901-4.831-8.455-1.529-1.94-3.089-3.85-4.801-5.618-1.913-1.973-2.957-4.231-2.812-7.016.097-1.871.628-3.609 2.381-4.595 1.388-.781 2.15-.389 2.516 1.192.321 1.386.434 2.828.557 4.255.126 1.451.139 2.913.287 4.361.346 3.374 2.268 5.847 4.963 7.736.71.499 1.479.907 2.207 1.378.843.544 1.189 1.272.849 2.247-.197.564-.351 1.143-.539 1.709-.35 1.056-.719 2.103-1.085 3.167-.273.793-.537 1.588-.804 2.377zm54.811 44.831c-1.416.867-2.967 1.504-4.335 2.429-3.741 2.525-7.384 5.207-11.076 7.813-.977.688-1.998 1.394-2.849 2.243-1.261 1.259-2.486 2.604-3.515 4.066-1.963 2.787-4.938 3.888-8.039 4.292-3.322.433-6.504.881-9.777 1.006-1.666.063-2.763-.875-3.456-2.392-.414-.904-.733-1.851-1.164-2.748-1.479-3.078-3.143-6.055-5.345-8.641-.688-.809-.856-1.733-.578-2.682.85-2.901 1.762-5.787 2.777-8.627.636-1.778 1.472-3.49 2.29-5.195 1.411-2.947 3.015-5.792 4.366-8.762 1.233-2.709 2.144-5.553 3.305-8.292.39-.918 1.192-1.674 1.895-2.417 1.201-1.267 2.471-2.466 3.719-3.685 2.508-2.452 5.525-4.039 8.959-4.776 1.517-.326 2.984-.124 4.293.861 2.019 1.522 3.921 3.214 5.652 5.089 2.164 2.353 3.912 5.002 4.982 8.012.587 1.649 1.006 3.368 1.355 5.082.271 1.334.416 2.702.477 4.061.134 2.919.467 5.805.938 8.674.332 2.02.135 3.946-1.03 5.676zm14.889.89c-1.34.326-2.701.6-4.015 1.001-3.643 1.111-7.288 2.227-10.892 3.458-1.254.429-2.32 1.353-3.332 2.226-2.599 2.242-4.729 4.935-6.697 7.739-.78 1.109-1.572 2.212-2.394 3.288-.317.416-.71.803-1.158.203-.401-.535-.238-1.054.051-1.575 1.632-2.937 3.107-5.959 4.638-8.95.982-1.922 1.972-3.839 2.886-5.795 1.07-2.287 2.115-4.592 3.081-6.931.355-.857.435-1.845.572-2.785.309-2.119.569-4.244.854-6.366.1-.738.178-1.482.346-2.207.362-1.558 1.195-2.824 2.81-3.384.981-.34 1.941-.758 2.926-1.098 1.563-.54 3.153-.973 4.701-1.536 1.142-.417 2.231-.969 3.33-1.484.191-.089.424-.329.422-.494-.003-.212-.229-.423-.363-.631-.273-.42-.566-.83-.837-1.252-.722-1.129-1.442-2.26-2.149-3.398-.766-1.233-1.532-2.467-2.252-3.727-.525-.918-1.156-1.806-1.363-2.827-.278-1.377.396-2.366 1.737-2.778 1.275-.392 2.572-.744 3.869-1.045 1.649-.383 3.307-.729 4.968-1.057.797-.157 1.617-.224 2.426-.329.35-.045.699-.088 1.048-.123.26-.026.522-.017.782-.045.513-.054.821.171.939.699.189.84.305 1.7.488 2.544.142.655.352 1.293.45 1.95.271 1.814.488 3.637.739 5.455.187 1.362.406 2.717.601 4.076.109.76.192 1.524.31 2.281.092.591.218 1.175.357 1.754.106.442.553.659.592 1.169.055.725.203 1.062-.508 1.494z"/>
</svg>
